<?xml version="1.0" encoding="UTF-8"?>
<svg xmlns="http://www.w3.org/2000/svg" xmlns:xlink="http://www.w3.org/1999/xlink" width="40px" height="40px" viewBox="0 0 40 40" version="1.1">
<g id="surface1">
<path style=" stroke:none;fill-rule:nonzero;fill:rgb(0%,0%,0%);fill-opacity:1;" d="M 0 20 L 0 40 L 40 40 L 40 0 L 0 0 Z M 21.238281 7.226562 C 21.253906 7.832031 21.347656 8.117188 21.84375 9.089844 C 22.085938 9.570312 22.296875 9.960938 22.3125 9.960938 C 22.328125 9.960938 22.351562 9.941406 22.367188 9.917969 C 22.414062 9.839844 22.726562 9.90625 22.953125 10.042969 C 23.230469 10.210938 23.761719 10.703125 24.074219 11.085938 C 25.160156 12.414062 26.160156 14.597656 26.429688 16.230469 C 26.53125 16.832031 26.53125 18.183594 26.433594 18.710938 C 26.132812 20.300781 25.0625 21.953125 23.789062 22.789062 C 23.03125 23.285156 22.21875 23.609375 21.328125 23.769531 C 20.828125 23.855469 19.808594 23.847656 19.238281 23.75 C 17.050781 23.375 15.308594 21.832031 14.558594 19.605469 C 14.308594 18.863281 14.238281 18.40625 14.242188 17.558594 C 14.25 16.503906 14.34375 16.011719 14.878906 14.300781 C 15.171875 13.351562 15.246094 12.972656 15.226562 12.46875 C 15.214844 12.089844 15.203125 12.027344 15.078125 11.777344 C 15.007812 11.625 14.945312 11.488281 14.945312 11.464844 C 14.941406 11.40625 15.257812 11.328125 15.675781 11.285156 C 15.984375 11.253906 16.128906 11.257812 16.414062 11.308594 C 16.894531 11.390625 17.191406 11.539062 17.554688 11.878906 C 17.71875 12.035156 17.859375 12.152344 17.867188 12.144531 C 17.875 12.136719 17.957031 11.804688 18.046875 11.40625 C 18.480469 9.527344 18.785156 8.648438 19.289062 7.871094 C 19.726562 7.1875 20.335938 6.832031 21.015625 6.847656 L 21.230469 6.855469 Z M 32.25 24.398438 C 32.617188 24.574219 32.671875 25.011719 32.363281 25.3125 C 32.121094 25.546875 31.722656 25.511719 31.53125 25.242188 C 31.410156 25.078125 31.390625 24.886719 31.464844 24.695312 C 31.589844 24.382812 31.941406 24.25 32.25 24.398438 Z M 24.289062 27.359375 C 24.296875 29.207031 24.289062 29.707031 24.25 29.734375 C 24.191406 29.769531 23.472656 29.777344 23.382812 29.742188 C 23.347656 29.730469 23.320312 29.699219 23.320312 29.671875 C 23.320312 29.648438 23.304688 29.605469 23.285156 29.574219 C 23.257812 29.53125 23.210938 29.539062 23.027344 29.625 C 22.773438 29.746094 22.351562 29.804688 22.058594 29.761719 C 21.773438 29.714844 21.414062 29.53125 21.160156 29.300781 C 20.886719 29.046875 20.625 28.554688 20.59375 28.234375 L 20.574219 28.027344 L 20.5 28.320312 C 20.363281 28.882812 19.996094 29.335938 19.46875 29.597656 C 19.191406 29.734375 19.136719 29.746094 18.765625 29.757812 C 18.4375 29.773438 18.3125 29.757812 18.09375 29.691406 C 17.777344 29.597656 17.40625 29.359375 17.203125 29.128906 C 17.023438 28.921875 16.832031 28.519531 16.804688 28.296875 C 16.796875 28.199219 16.78125 28.128906 16.773438 28.136719 C 16.761719 28.144531 16.730469 28.25 16.699219 28.375 C 16.558594 28.917969 16.203125 29.339844 15.675781 29.59375 C 15.398438 29.730469 15.339844 29.742188 14.957031 29.757812 C 14.355469 29.78125 13.980469 29.660156 13.558594 29.304688 C 12.574219 28.46875 12.761719 26.859375 13.910156 26.234375 C 14.636719 25.835938 15.648438 25.988281 16.203125 26.578125 C 16.457031 26.847656 16.585938 27.082031 16.675781 27.425781 C 16.742188 27.683594 16.753906 27.703125 16.773438 27.597656 C 16.925781 26.878906 17.421875 26.285156 18.03125 26.09375 C 18.511719 25.945312 19.152344 26.007812 19.582031 26.242188 C 20.007812 26.472656 20.425781 27.042969 20.492188 27.480469 C 20.527344 27.71875 20.570312 27.734375 20.597656 27.511719 C 20.609375 27.410156 20.691406 27.1875 20.78125 27.007812 C 20.980469 26.613281 21.257812 26.335938 21.628906 26.160156 C 21.878906 26.042969 21.921875 26.035156 22.324219 26.035156 C 22.761719 26.035156 22.824219 26.050781 23.246094 26.28125 C 23.261719 26.285156 23.273438 26.015625 23.273438 25.679688 C 23.273438 25.214844 23.289062 25.058594 23.328125 25.035156 C 23.355469 25.015625 23.582031 25.003906 23.828125 25.007812 L 24.277344 25.019531 Z M 12.949219 25.0625 C 13.183594 25.15625 13.175781 25.84375 12.9375 25.972656 C 12.886719 26 12.511719 26.015625 11.898438 26.015625 L 10.9375 26.015625 L 10.9375 27.03125 L 11.601562 27.03125 C 12.222656 27.03125 12.269531 27.035156 12.347656 27.113281 C 12.421875 27.1875 12.429688 27.230469 12.414062 27.488281 C 12.394531 27.894531 12.402344 27.890625 11.59375 27.890625 L 10.9375 27.890625 L 10.929688 28.816406 L 10.917969 29.746094 L 9.980469 29.746094 L 9.96875 27.390625 L 9.960938 25.039062 L 11.421875 25.039062 C 12.226562 25.039062 12.914062 25.050781 12.949219 25.0625 Z M 28.484375 25.554688 C 28.625 25.609375 28.832031 25.714844 28.9375 25.792969 L 29.136719 25.933594 L 29.277344 25.820312 C 29.355469 25.757812 29.519531 25.667969 29.640625 25.617188 C 30.046875 25.460938 30.960938 25.511719 31.203125 25.710938 C 31.25 25.75 31.273438 26.40625 31.230469 26.453125 C 31.21875 26.460938 31.109375 26.421875 30.988281 26.359375 C 30.449219 26.09375 29.882812 26.152344 29.6875 26.5 C 29.632812 26.59375 29.636719 26.617188 29.726562 26.789062 C 29.820312 26.960938 29.84375 26.980469 30.15625 27.097656 C 30.886719 27.378906 31.164062 27.5625 31.347656 27.894531 C 31.449219 28.074219 31.464844 28.148438 31.464844 28.398438 C 31.464844 28.640625 31.445312 28.730469 31.355469 28.914062 C 31.222656 29.183594 31.003906 29.382812 30.707031 29.5 C 30.519531 29.574219 30.414062 29.589844 30 29.589844 C 29.488281 29.589844 29.257812 29.539062 29.011719 29.363281 L 28.902344 29.289062 L 28.660156 29.40625 C 28.351562 29.558594 28.140625 29.605469 27.773438 29.609375 C 27.179688 29.609375 26.707031 29.410156 26.332031 29 C 25.957031 28.59375 25.78125 28.113281 25.78125 27.5 C 25.78125 26.539062 26.339844 25.714844 27.148438 25.488281 C 27.480469 25.398438 28.148438 25.429688 28.484375 25.554688 Z M 28.484375 25.554688 "/>
<path style=" stroke:none;fill-rule:nonzero;fill:rgb(0%,0%,0%);fill-opacity:1;" d="M 20.371094 7.882812 C 20.027344 8.09375 19.628906 8.714844 19.378906 9.429688 C 19.085938 10.265625 18.648438 12.261719 18.515625 13.378906 C 18.429688 14.121094 18.410156 15.308594 18.476562 15.859375 C 18.53125 16.285156 18.6875 16.960938 18.835938 17.375 C 18.960938 17.730469 19.246094 18.347656 19.300781 18.382812 C 19.320312 18.394531 19.335938 18.328125 19.335938 18.242188 C 19.335938 18 19.476562 17.355469 19.613281 16.964844 C 19.773438 16.507812 19.941406 16.1875 20.363281 15.507812 C 20.554688 15.195312 20.828125 14.757812 20.96875 14.53125 C 21.460938 13.738281 21.667969 13.230469 21.777344 12.574219 C 21.9375 11.566406 21.761719 10.710938 21.125 9.441406 C 20.789062 8.761719 20.640625 8.394531 20.582031 8.070312 C 20.554688 7.929688 20.523438 7.8125 20.511719 7.8125 C 20.5 7.8125 20.4375 7.84375 20.371094 7.882812 Z M 20.53125 9.710938 L 20.582031 9.828125 L 20.457031 9.8125 C 20.386719 9.800781 20.320312 9.773438 20.304688 9.75 C 20.261719 9.6875 20.261719 9.699219 20.253906 10.878906 C 20.25 11.828125 20.242188 11.96875 20.164062 12.28125 C 20.039062 12.773438 19.730469 13.371094 19.671875 13.222656 C 19.65625 13.175781 19.613281 13.167969 19.492188 13.1875 C 19.347656 13.210938 19.335938 13.207031 19.332031 13.121094 L 19.328125 13.027344 L 19.265625 13.222656 L 19.261719 13.121094 C 19.253906 12.96875 19.535156 11.542969 19.6875 10.9375 C 19.796875 10.507812 20.070312 9.667969 20.183594 9.417969 L 20.28125 9.199219 L 20.378906 9.394531 C 20.433594 9.5 20.503906 9.644531 20.53125 9.710938 Z M 20.53125 9.710938 "/>
<path style=" stroke:none;fill-rule:nonzero;fill:rgb(0%,0%,0%);fill-opacity:1;" d="M 20.308594 9.433594 C 20.304688 9.445312 20.300781 9.503906 20.296875 9.570312 C 20.292969 9.65625 20.308594 9.6875 20.363281 9.6875 C 20.445312 9.6875 20.453125 9.585938 20.367188 9.554688 C 20.332031 9.539062 20.3125 9.503906 20.328125 9.472656 C 20.339844 9.441406 20.339844 9.414062 20.332031 9.414062 C 20.320312 9.414062 20.308594 9.421875 20.308594 9.433594 Z M 20.308594 9.433594 "/>
<path style=" stroke:none;fill-rule:nonzero;fill:rgb(0%,0%,0%);fill-opacity:1;" d="M 22.917969 11.015625 C 22.90625 11.046875 22.886719 11.363281 22.875 11.71875 C 22.851562 12.4375 22.785156 12.882812 22.632812 13.363281 C 22.433594 14 22.222656 14.347656 21.171875 15.816406 C 20.421875 16.863281 20.320312 17.0625 20.1875 17.773438 C 20.042969 18.554688 20.140625 19.394531 20.460938 20.019531 C 20.730469 20.554688 21.167969 21.042969 21.652344 21.34375 C 22.039062 21.585938 22.328125 21.679688 22.773438 21.714844 L 23.144531 21.742188 L 22.96875 21.796875 C 22.703125 21.886719 22.183594 21.867188 21.84375 21.765625 C 21 21.503906 20.199219 20.9375 19.628906 20.195312 C 19.304688 19.773438 18.867188 19.054688 18.613281 18.535156 C 18.078125 17.429688 17.859375 16.570312 17.65625 14.785156 C 17.53125 13.65625 17.394531 13.128906 17.128906 12.714844 C 16.890625 12.339844 16.601562 12.148438 16.226562 12.117188 L 15.988281 12.097656 L 15.964844 12.699219 C 15.9375 13.382812 15.878906 13.6875 15.535156 14.84375 C 15.121094 16.238281 15.011719 16.941406 15.050781 17.945312 C 15.0625 18.269531 15.101562 18.648438 15.136719 18.789062 C 15.632812 20.832031 16.976562 22.269531 18.921875 22.828125 C 19.425781 22.976562 19.714844 23.011719 20.347656 23.011719 C 21.378906 23.007812 22.238281 22.777344 23.066406 22.285156 C 24.4375 21.464844 25.355469 20.128906 25.667969 18.503906 C 25.742188 18.125 25.75 17.980469 25.730469 17.421875 C 25.707031 16.703125 25.636719 16.261719 25.445312 15.558594 C 25.195312 14.640625 24.617188 13.332031 24.097656 12.507812 C 23.574219 11.675781 22.957031 10.894531 22.917969 11.015625 Z M 23.703125 13.414062 C 23.769531 13.539062 23.796875 13.617188 23.765625 13.605469 C 23.734375 13.59375 23.710938 13.566406 23.710938 13.539062 C 23.710938 13.515625 23.691406 13.523438 23.671875 13.554688 C 23.652344 13.585938 23.632812 13.816406 23.632812 14.0625 C 23.632812 15.304688 23.425781 16.277344 22.972656 17.183594 C 22.671875 17.789062 22.148438 18.492188 21.972656 18.539062 C 21.855469 18.566406 21.488281 18.441406 21.433594 18.355469 C 21.40625 18.3125 21.34375 18.28125 21.277344 18.28125 C 21.203125 18.28125 21.15625 18.253906 21.128906 18.1875 C 21.082031 18.089844 20.992188 18.089844 20.925781 18.179688 C 20.910156 18.203125 20.90625 18.167969 20.921875 18.105469 C 20.972656 17.859375 21.070312 17.589844 21.195312 17.34375 C 21.328125 17.089844 21.402344 16.988281 22.210938 15.878906 C 23.011719 14.785156 23.304688 14.226562 23.515625 13.386719 C 23.542969 13.285156 23.570312 13.203125 23.578125 13.203125 C 23.582031 13.203125 23.640625 13.296875 23.703125 13.414062 Z M 16.835938 14.347656 C 16.863281 14.492188 16.875 14.625 16.859375 14.636719 C 16.847656 14.652344 16.835938 14.621094 16.835938 14.574219 C 16.835938 14.460938 16.734375 14.21875 16.683594 14.21875 C 16.664062 14.21875 16.65625 14.289062 16.667969 14.382812 C 16.683594 14.492188 16.679688 14.535156 16.648438 14.515625 C 16.621094 14.5 16.597656 14.542969 16.582031 14.636719 C 16.570312 14.71875 16.53125 14.925781 16.5 15.09375 C 16.355469 15.871094 16.300781 17.285156 16.386719 18.027344 C 16.417969 18.304688 16.445312 18.5625 16.445312 18.59375 C 16.445312 18.640625 16.386719 18.65625 16.164062 18.667969 C 16.007812 18.671875 15.871094 18.683594 15.855469 18.695312 C 15.75 18.757812 15.710938 17.703125 15.800781 17.109375 C 15.882812 16.546875 15.910156 16.429688 16.21875 15.351562 C 16.359375 14.867188 16.523438 14.289062 16.585938 14.0625 L 16.699219 13.65625 L 16.742188 13.867188 C 16.765625 13.984375 16.808594 14.203125 16.835938 14.347656 Z M 16.835938 14.347656 "/>
<path style=" stroke:none;fill-rule:nonzero;fill:rgb(0%,0%,0%);fill-opacity:1;" d="M 31.847656 24.535156 C 31.683594 24.582031 31.601562 24.707031 31.601562 24.914062 C 31.601562 25.269531 31.988281 25.441406 32.261719 25.210938 C 32.613281 24.914062 32.304688 24.40625 31.847656 24.535156 Z M 32.230469 24.671875 C 32.269531 24.722656 32.269531 24.738281 32.222656 24.773438 C 32.179688 24.800781 32.179688 24.816406 32.21875 24.832031 C 32.269531 24.851562 32.28125 25.027344 32.242188 25.132812 C 32.207031 25.226562 32.117188 25.207031 32.054688 25.085938 C 32 24.988281 31.996094 24.984375 31.992188 25.066406 C 31.992188 25.128906 31.960938 25.164062 31.894531 25.179688 C 31.839844 25.195312 31.785156 25.195312 31.773438 25.183594 C 31.742188 25.152344 31.742188 24.703125 31.773438 24.652344 C 31.816406 24.585938 32.167969 24.597656 32.230469 24.671875 Z M 32.230469 24.671875 "/>
<path style=" stroke:none;fill-rule:nonzero;fill:rgb(0%,0%,0%);fill-opacity:1;" d="M 32.03125 24.75 C 32.03125 24.828125 32.101562 24.960938 32.144531 24.960938 C 32.160156 24.960938 32.15625 24.898438 32.132812 24.824219 C 32.089844 24.683594 32.03125 24.640625 32.03125 24.75 Z M 32.03125 24.75 "/>
<path style=" stroke:none;fill-rule:nonzero;fill:rgb(0%,0%,0%);fill-opacity:1;" d="M 31.882812 25.058594 C 31.882812 25.121094 31.890625 25.144531 31.902344 25.105469 C 31.910156 25.070312 31.910156 25.015625 31.902344 24.988281 C 31.890625 24.964844 31.882812 24.992188 31.882812 25.058594 Z M 31.882812 25.058594 "/>
<path style=" stroke:none;fill-rule:nonzero;fill:rgb(0%,0%,0%);fill-opacity:1;" d="M 22.253906 26.929688 C 21.6875 27.082031 21.363281 27.75 21.605469 28.28125 C 21.796875 28.703125 22.046875 28.882812 22.441406 28.878906 C 23.015625 28.875 23.410156 28.390625 23.34375 27.765625 C 23.28125 27.152344 22.800781 26.785156 22.253906 26.929688 Z M 22.253906 26.929688 "/>
<path style=" stroke:none;fill-rule:nonzero;fill:rgb(0%,0%,0%);fill-opacity:1;" d="M 14.433594 27.007812 C 13.839844 27.285156 13.691406 28.042969 14.128906 28.554688 C 14.316406 28.769531 14.527344 28.867188 14.824219 28.867188 C 15.117188 28.867188 15.324219 28.773438 15.511719 28.566406 C 15.863281 28.179688 15.851562 27.589844 15.496094 27.191406 C 15.363281 27.046875 15.046875 26.914062 14.824219 26.914062 C 14.699219 26.914062 14.558594 26.949219 14.433594 27.007812 Z M 14.433594 27.007812 "/>
<path style=" stroke:none;fill-rule:nonzero;fill:rgb(0%,0%,0%);fill-opacity:1;" d="M 18.261719 26.992188 C 17.800781 27.242188 17.605469 27.699219 17.753906 28.179688 C 18.023438 29.035156 19.101562 29.109375 19.492188 28.296875 C 19.5625 28.152344 19.574219 28.070312 19.5625 27.835938 C 19.546875 27.492188 19.410156 27.238281 19.148438 27.050781 C 19.003906 26.953125 18.9375 26.933594 18.699219 26.921875 C 18.46875 26.910156 18.390625 26.925781 18.261719 26.992188 Z M 18.261719 26.992188 "/>
<path style=" stroke:none;fill-rule:nonzero;fill:rgb(0%,0%,0%);fill-opacity:1;" d="M 27.316406 26.195312 C 27.082031 26.28125 26.820312 26.53125 26.695312 26.789062 C 26.5 27.191406 26.523438 27.90625 26.738281 28.289062 C 26.976562 28.707031 27.273438 28.886719 27.734375 28.882812 C 28.226562 28.882812 28.574219 28.65625 28.796875 28.195312 C 29.164062 27.4375 28.902344 26.511719 28.226562 26.207031 C 28.027344 26.117188 27.558594 26.113281 27.316406 26.195312 Z M 27.316406 26.195312 "/>
<path style=" stroke:none;fill-rule:nonzero;fill:rgb(0%,0%,0%);fill-opacity:1;" d="M 29.667969 27.917969 C 29.632812 28.171875 29.5 28.511719 29.410156 28.585938 C 29.296875 28.683594 29.320312 28.738281 29.503906 28.832031 C 29.738281 28.953125 30.167969 28.976562 30.351562 28.875 C 30.507812 28.792969 30.625 28.59375 30.625 28.410156 C 30.625 28.257812 30.476562 28.074219 30.273438 27.96875 C 30.160156 27.910156 29.730469 27.734375 29.703125 27.734375 C 29.699219 27.734375 29.683594 27.816406 29.667969 27.917969 Z M 29.667969 27.917969 "/>
</g>
</svg>
